{"title":"Hells Angels 69 (1969) DVDRip XviD AC3 peaSoup","uid":9093818,"size":733212672,"categoryP":"video","categoryS":"movies","magnet":"?xt=urn:btih:d7a3f97c72412ef4b8196cdff7ab28a21a52599b&amp;dn=Hells+Angels+69+%281969%29+DVDRip+XviD+AC3+peaSoup&amp;tr=udp%3A%2F%2Ftracker.openbittorrent.com%3A80&amp;tr=udp%3A%2F%2Fopen.demonii.com%3A1337&amp;tr=udp%3A%2F%2Ftracker.coppersurfer.tk%3A6969&amp;tr=udp%3A%2F%2Fexodus.desync.com%3A6969","seeders":1,"leechers":0,"uploader":"peaSoup","files":-1,"time":1382645184,"description":"Storyline\n\nTwo brothers have a plan on how to rob the Ceasar's Palace in Las Vegas. They join a motorcycle gang and while the others are drinking and partying outside of town, they change their clothes and head off to rob the casino. Of course, the police do not look for two well dressed criminals among the Hell's Angels.                        &lt;a href=&quot; http://imageshack.us/a/img196/8242/pdj3.jpg&quot; rel=&quot;nofollow&quot; target=&quot;_NEW&quot;&gt; http://imageshack.us/a/img196/8242/pdj3.jpg&lt;/a&gt;                                         &lt;a href=&quot; http://imageshack.us/a/img849/4622/95f9.jpg&quot; rel=&quot;nofollow&quot; target=&quot;_NEW&quot;&gt; http://imageshack.us/a/img849/4622/95f9.jpg&lt;/a&gt;                                         &lt;a href=&quot; http://imageshack.us/a/img802/2709/8dbl.jpg&quot; rel=&quot;nofollow&quot; target=&quot;_NEW&quot;&gt; http://imageshack.us/a/img802/2709/8dbl.jpg&lt;/a&gt;                                         &lt;a href=&quot; http://imageshack.us/a/img826/761/dr2f.jpg&quot; rel=&quot;nofollow&quot; target=&quot;_NEW&quot;&gt; http://imageshack.us/a/img826/761/dr2f.jpg&lt;/a&gt;                                          &lt;a href=&quot; http://imageshack.us/a/img844/6405/rfpz.jpg&quot; rel=&quot;nofollow&quot; target=&quot;_NEW&quot;&gt; http://imageshack.us/a/img844/6405/rfpz.jpg&lt;/a&gt;                                          Format                                   : AVI\nFormat/Info                              : Audio Video Interleave\nFile size                                : 699 MiB\nDuration                                 : 1h 35mn\nOverall bit rate                         : 1 022 Kbps\nWriting application                      : VirtualDubMod 1.5.4.1 (build 2178/release)\nWriting library                          : VirtualDubMod build 2178/release\n\nVideo\nID                                       : 0\nFormat                                   : MPEG-4 Visual\nFormat profile                           : Advanced Simple@L5\nFormat settings, BVOP                    : 1\nFormat settings, QPel                    : No\nFormat settings, GMC                     : No warppoints\nFormat settings, Matrix                  : Custom\nCodec ID                                 : XVID\nCodec ID/Hint                            : XviD\nDuration                                 : 1h 35mn\nBit rate                                 : 887 Kbps\nWidth                                    : 720 pixels\nHeight                                   : 464 pixels\nDisplay aspect ratio                     : 1.552\nFrame rate                               : 25.000 fps\nColor space                              : YUV\nChroma subsampling                       : 4:2:0\nBit depth                                : 8 bits\nScan type                                : Progressive\nCompression mode                         : Lossy\nBits/(Pixel*Frame)                       : 0.106\nStream size                              : 607 MiB (87%)\nWriting library                          : XviD 1.2.1 (UTC 2008-12-04)\n\nAudio\nID                                       : 1\nFormat                                   : AC-3\nFormat/Info                              : Audio Coding 3\nMode extension                           : CM (complete main)\nFormat settings, Endianness              : Big\nCodec ID                                 : 2000\nDuration                                 : 1h 35mn\nBit rate mode                            : Constant\nBit rate                                 : 128 Kbps\nChannel(s)                               : 2 channels\nChannel positions                        : Front: L R\nSampling rate                            : 48.0 KHz\nBit depth                                : 16 bits\nCompression mode                         : Lossy\nStream size                              : 87.6 MiB (13%)\nAlignment                                : Split accross interleaves\nInterleave, duration                     : 96 ms (2.40 video frames)\nInterleave, preload duration             : 96 ms\n\n","torrent":{"xt":"urn:btih:d7a3f97c72412ef4b8196cdff7ab28a21a52599b","amp;dn":"Hells+Angels+69+%281969%29+DVDRip+XviD+AC3+peaSoup","amp;tr":["udp%3A%2F%2Ftracker.openbittorrent.com%3A80","udp%3A%2F%2Fopen.demonii.com%3A1337","udp%3A%2F%2Ftracker.coppersurfer.tk%3A6969","udp%3A%2F%2Fexodus.desync.com%3A6969"],"infoHash":"d7a3f97c72412ef4b8196cdff7ab28a21a52599b","infoHashBuffer":{"type":"Buffer","data":[215,163,249,124,114,65,46,244,184,25,108,223,247,171,40,162,26,82,89,155]},"announce":[],"urlList":[]}}